<?xml version="1.0" standalone="no"?>
<!DOCTYPE svg PUBLIC "-//W3C//DTD SVG 20010904//EN"
 "http://www.w3.org/TR/2001/REC-SVG-20010904/DTD/svg10.dtd">
<svg version="1.0" xmlns="http://www.w3.org/2000/svg"
 width="700.000000pt" height="700.000000pt" viewBox="0 0 700.000000 700.000000"
 preserveAspectRatio="xMidYMid meet">
<metadata>
Created by potrace 1.11, written by Peter Selinger 2001-2013
</metadata>
<g transform="translate(0.000000,700.000000) scale(0.100000,-0.100000)"
fill="#000000" stroke="none">
<path d="M3420 6989 c-57 -16 -92 -35 -137 -74 -46 -39 -100 -138 -107 -195
-3 -19 -5 -172 -5 -340 l-1 -305 -97 -18 c-142 -24 -146 -25 -265 -58 -60 -16
-120 -36 -132 -45 -79 -51 -40 -184 54 -184 12 0 60 11 108 24 101 29 253 61
332 71 30 3 69 9 85 12 64 11 377 9 495 -3 542 -58 1025 -287 1423 -673 204
-198 413 -502 524 -762 78 -183 148 -436 168 -609 3 -25 10 -76 14 -115 11
-90 6 -401 -7 -485 -6 -36 -14 -90 -17 -120 -4 -30 -9 -58 -11 -61 -2 -3 -6
-21 -9 -40 -16 -98 -87 -326 -136 -439 -82 -189 -199 -385 -328 -550 -71 -92
-281 -307 -346 -355 -22 -17 -49 -38 -60 -48 -41 -38 -253 -175 -345 -224
-241 -129 -512 -217 -800 -259 -194 -28 -600 -22 -720 11 -8 3 -31 7 -50 10
-19 3 -62 12 -95 20 -33 9 -71 18 -85 21 -113 24 -354 122 -510 208 -412 228
-733 550 -960 964 -405 739 -379 1663 68 2387 93 151 263 362 371 459 18 17
50 47 70 66 97 92 221 182 401 290 114 69 126 78 134 112 17 68 -30 128 -100
128 -16 0 -69 -23 -118 -51 -98 -56 -292 -185 -302 -201 -4 -5 -113 96 -243
225 -139 138 -250 240 -271 249 -72 31 -86 35 -142 37 -129 5 -250 -69 -307
-189 -22 -46 -26 -69 -26 -140 0 -131 15 -153 281 -420 123 -124 224 -229 224
-233 0 -5 -24 -42 -52 -82 -147 -205 -266 -439 -348 -686 -39 -117 -83 -287
-93 -364 -3 -22 -9 -59 -13 -82 l-7 -43 -311 0 c-246 0 -324 -3 -370 -15 -148
-39 -248 -173 -241 -326 5 -108 40 -180 117 -241 94 -74 85 -72 464 -76 l342
-3 6 -43 c41 -273 114 -508 236 -761 54 -113 155 -281 229 -382 l50 -68 -233
-235 c-271 -274 -280 -288 -281 -420 0 -101 27 -171 91 -233 104 -103 272
-125 394 -54 19 11 139 123 265 248 l230 228 75 -55 c292 -214 730 -400 1060
-448 8 -2 38 -6 67 -10 l52 -8 3 -337 3 -336 29 -63 c126 -273 524 -242 610
48 13 44 16 109 16 372 0 296 1 318 18 319 9 0 26 2 37 4 11 2 49 9 85 15 371
63 783 246 1095 485 18 15 32 3 250 -214 275 -274 293 -286 430 -286 80 0 96
3 141 28 117 65 177 159 181 285 4 134 -18 168 -287 437 l-229 229 31 41 c117
156 274 440 338 615 67 181 127 408 145 548 l7 52 311 1 c172 0 323 3 337 5
61 11 98 27 142 59 174 128 180 391 11 522 -45 35 -114 64 -163 68 -19 2 -171
4 -336 4 l-302 1 -6 43 c-4 23 -9 58 -12 77 -8 62 -45 212 -76 310 -86 276
-217 540 -376 755 l-51 70 233 235 c271 273 280 288 281 420 0 73 -4 93 -28
142 -35 71 -87 123 -157 157 -46 22 -69 26 -140 26 -132 0 -146 -10 -420 -281
l-235 -233 -40 30 c-314 238 -742 419 -1132 480 l-82 12 -3 336 -3 336 -33 67
c-55 112 -149 176 -270 183 -37 2 -83 -1 -102 -6z m166 -236 c21 -20 34 -44
35 -61 3 -80 4 -579 1 -589 -5 -15 -240 -15 -245 1 -3 10 -1 534 2 593 1 28
63 90 93 95 46 6 81 -5 114 -39z m-2256 -914 c14 -10 115 -108 224 -218 l200
-200 -88 -88 -87 -88 -218 220 c-157 158 -220 228 -223 249 -21 112 100 191
192 125z m4503 -19 c37 -42 41 -103 8 -148 -11 -15 -110 -117 -220 -227 l-201
-200 -88 88 -87 87 220 219 c232 231 240 237 310 219 17 -4 42 -21 58 -38z
m-4927 -2318 c1 -67 -2 -123 -5 -123 -3 -1 -136 -2 -296 -3 -258 -2 -294 0
-326 15 -54 27 -73 62 -70 131 1 38 61 96 103 100 18 2 159 3 313 3 l280 -1 1
-122z m5820 105 c86 -44 89 -159 6 -213 -24 -16 -59 -18 -332 -18 l-305 -1 -2
120 c-1 66 2 122 7 125 4 3 140 5 302 4 250 0 298 -3 324 -17z m-5056 -1942
l85 -86 -220 -218 c-158 -157 -228 -220 -249 -223 -63 -12 -128 28 -144 88
-18 69 -11 78 216 306 119 120 219 218 222 218 3 0 44 -38 90 -85z m3968 -128
c225 -225 238 -244 221 -312 -16 -61 -80 -99 -145 -87 -21 3 -91 66 -249 223
l-220 218 85 86 c46 47 87 85 90 85 3 0 101 -96 218 -213z m-2014 -937 c0
-274 -2 -308 -18 -332 -54 -83 -168 -80 -213 6 -14 26 -17 74 -18 326 -1 162
0 298 2 302 2 4 58 6 126 5 l122 -2 -1 -305z"/>
<path d="M3280 5630 c-109 -15 -146 -21 -235 -40 -396 -85 -752 -278 -1044
-568 -181 -178 -301 -342 -410 -558 -166 -329 -233 -626 -226 -1004 2 -107 6
-206 9 -220 3 -14 8 -45 11 -70 3 -25 12 -72 20 -105 8 -33 16 -71 19 -85 12
-74 86 -278 144 -400 302 -633 922 -1095 1607 -1195 22 -4 51 -9 65 -12 14 -3
115 -6 225 -8 201 -3 318 7 470 40 39 8 79 17 90 19 37 8 180 54 245 79 421
161 792 469 1047 867 49 77 163 302 163 322 0 8 4 18 9 24 21 22 93 269 116
399 28 153 34 252 31 435 -3 102 -7 195 -9 207 -3 11 -9 43 -12 70 -4 26 -15
86 -26 133 -123 559 -460 1037 -959 1357 -173 112 -477 236 -665 273 -27 5
-59 11 -70 13 -11 3 -42 8 -70 12 -27 4 -61 10 -75 12 -45 8 -414 10 -470 3z
m338 -205 c9 -9 8 -1136 -1 -1142 -7 -4 -191 -7 -234 -4 -5 1 -8 259 -8 574
l0 572 45 5 c55 7 190 4 198 -5z m-448 -572 l0 -558 -390 390 c-214 214 -390
393 -390 396 0 8 107 76 200 126 144 79 389 167 525 189 22 3 42 8 44 10 2 2
6 4 8 4 2 0 3 -251 3 -557z m780 528 c208 -49 406 -133 598 -253 34 -22 62
-43 62 -46 0 -4 -175 -183 -390 -397 l-390 -390 0 558 c0 527 1 558 18 553 9
-3 55 -14 102 -25z m-1318 -838 l406 -408 -87 -87 -88 -86 -408 408 -409 409
85 85 c46 47 86 86 89 86 3 0 188 -183 412 -407z m2238 322 l84 -86 -408 -408
-409 -409 -88 87 -87 86 406 408 c224 224 409 407 412 407 3 0 44 -38 90 -85z
m-2555 -645 l390 -390 -558 0 c-527 0 -558 1 -553 18 3 9 12 49 21 87 34 149
103 337 169 459 67 123 125 215 136 216 3 0 181 -175 395 -390z m2811 328
c116 -178 208 -393 255 -598 11 -47 22 -93 25 -102 5 -17 -26 -18 -553 -18
l-558 0 390 390 c214 215 392 390 395 390 3 0 24 -28 46 -62z m-1494 -488
c184 -42 352 -195 412 -372 110 -329 -87 -678 -424 -750 -281 -61 -574 105
-665 377 -79 238 4 503 206 650 62 46 175 94 237 102 26 3 48 6 50 8 7 6 138
-4 184 -15z m-917 -439 c6 -1 10 -48 9 -123 l-1 -122 -576 -1 -577 0 -1 25
c-5 105 -4 207 2 215 5 6 205 9 571 9 309 -1 568 -2 573 -3z m2712 -4 c12 -12
10 -219 -2 -231 -8 -8 -179 -11 -576 -10 -310 1 -566 2 -569 3 -4 1 -4 197 0
241 0 8 1139 5 1147 -3z m-3112 -837 c-214 -214 -393 -390 -397 -390 -4 0 -14
12 -23 28 -9 15 -24 41 -35 57 -76 118 -158 293 -201 429 -24 73 -50 173 -53
201 -2 11 -6 30 -10 43 l-7 22 558 0 558 0 -390 -390z m3079 325 c-35 -168
-108 -371 -179 -500 -66 -119 -125 -215 -134 -215 -3 0 -182 176 -396 390
l-390 390 556 0 557 0 -14 -65z m-2765 -650 l-409 -410 -87 88 -88 87 409 409
409 409 88 -87 87 -86 -409 -410z m2238 -322 l-87 -88 -409 409 -409 409 86
88 87 87 410 -409 410 -409 -88 -87z m-1246 587 c1 -3 2 -262 3 -577 1 -564 1
-572 -19 -575 -17 -3 -170 -2 -215 1 -13 1 -15 71 -14 573 1 315 2 575 3 578
1 3 55 5 121 5 66 0 120 -2 121 -5z m-455 -1117 c-8 -21 -245 43 -407 110
-123 51 -314 156 -364 199 -6 5 145 163 380 398 l390 390 3 -542 c1 -299 0
-548 -2 -555z m1444 316 c0 -8 -116 -82 -205 -129 -155 -83 -368 -159 -529
-189 l-46 -8 0 556 0 556 390 -390 c215 -214 390 -393 390 -396z"/>
<path d="M3445 3824 c-173 -41 -279 -175 -271 -341 10 -206 206 -350 406 -299
148 38 244 162 244 316 0 132 -70 242 -191 297 -49 23 -147 37 -188 27z m160
-260 c33 -50 13 -133 -39 -168 -29 -19 -92 -21 -123 -3 -103 58 -76 205 42
228 35 6 98 -23 120 -57z"/>
</g>
</svg>
