<?xml version="1.0" encoding="iso-8859-1"?>
<!-- Generator: Adobe Illustrator 19.0.0, SVG Export Plug-In . SVG Version: 6.00 Build 0)  -->
<svg version="1.1" id="Capa_1" xmlns="http://www.w3.org/2000/svg" xmlns:xlink="http://www.w3.org/1999/xlink" x="0px" y="0px"
	 viewBox="0 0 512 512" style="enable-background:new 0 0 512 512;" xml:space="preserve">
<g>
	<g>
		<path d="M256,231.934c-13.27,0-24.066,10.796-24.066,24.066c0,13.27,10.796,24.066,24.066,24.066S280.066,269.27,280.066,256
			S269.27,231.934,256,231.934z M256,265.066c-4.999,0-9.066-4.067-9.066-9.066s4.067-9.066,9.066-9.066
			c4.999,0,9.066,4.067,9.066,9.066C265.066,260.999,260.999,265.066,256,265.066z"/>
	</g>
</g>
<g>
	<g>
		<path d="M487.933,231.933h-43.72c-4.365-34.336-17.952-65.83-38.179-91.932l30.985-30.985c9.384-9.383,9.384-24.652,0-34.035
			c-4.546-4.546-10.589-7.049-17.018-7.049c-6.429,0-12.472,2.503-17.018,7.049l-30.985,30.985
			c-26.102-20.227-57.596-33.813-91.932-38.179v-43.72C280.067,10.796,269.27,0,256,0c-13.271,0-24.067,10.796-24.067,24.067v43.722
			c-11.694,1.481-23.206,4.036-34.417,7.665c-3.941,1.275-6.102,5.504-4.826,9.445c1.275,3.941,5.505,6.104,9.445,4.826
			c17.337-5.612,35.46-8.458,53.864-8.458c5.245,0,10.434,0.246,15.563,0.701c0.207,0.028,0.416,0.045,0.628,0.056
			C360.976,90.221,430.733,165.111,430.733,256c0,5.246-0.246,10.434-0.701,15.563c-0.028,0.207-0.045,0.416-0.056,0.628
			c-7.705,83.456-74.34,150.088-157.798,157.787c-0.205,0.01-0.407,0.027-0.607,0.054c-5.132,0.455-10.323,0.702-15.571,0.702
			c-90.893,0-165.786-69.764-173.977-158.555c-0.011-0.205-0.027-0.407-0.054-0.607c-0.455-5.132-0.702-10.323-0.702-15.571
			c0-41.372,14.454-80.348,39.762-111.066c0.083-0.076,0.169-0.145,0.249-0.226c0.409-0.408,0.754-0.855,1.049-1.324
			c6.499-7.704,13.686-14.873,21.513-21.41c0.293-0.217,0.578-0.45,0.844-0.716c9.333-7.695,19.55-14.503,30.564-20.254
			c3.672-1.917,5.094-6.448,3.177-10.12s-6.448-5.094-10.12-3.177c-10.102,5.274-19.586,11.367-28.396,18.167l-30.893-30.893
			c-4.546-4.546-10.589-7.049-17.018-7.049c-6.429,0-12.472,2.503-17.017,7.049C70.435,79.528,67.932,85.571,67.932,92
			c0,6.429,2.504,12.472,7.049,17.018l30.863,30.864c-20.478,26.454-33.764,58.128-38.057,92.053h-43.72
			C10.796,231.933,0,242.73,0,256c0,13.271,10.796,24.067,24.067,24.067h43.72c4.366,34.336,17.952,65.829,38.179,91.932
			l-30.985,30.985c-4.546,4.546-7.049,10.589-7.049,17.018c0,6.429,2.504,12.472,7.049,17.018
			c4.546,4.546,10.589,7.049,17.018,7.049c6.429,0,12.472-2.503,17.018-7.049l30.985-30.985
			c26.102,20.227,57.596,33.814,91.932,38.179v43.72C231.933,501.204,242.729,512,256,512c13.27,0,24.067-10.796,24.067-24.067
			v-43.72c34.336-4.366,65.829-17.952,91.932-38.179l30.985,30.985c4.546,4.546,10.589,7.049,17.018,7.049
			s12.472-2.503,17.018-7.049c9.384-9.383,9.384-24.652,0-34.035l-30.985-30.985c20.227-26.102,33.814-57.596,38.179-91.932h43.72
			c13.27,0,24.066-10.796,24.066-24.067C512,242.73,501.204,231.933,487.933,231.933z M265.067,66.489
			c-3.005-0.142-6.027-0.221-9.067-0.221c-3.03,0-6.052,0.08-9.067,0.222V24.067c0-5,4.067-9.067,9.067-9.067
			c4.999,0,9.067,4.067,9.067,9.067V66.489z M383.535,115.642l30.056-30.055c1.712-1.713,3.989-2.656,6.411-2.656
			s4.698,0.943,6.411,2.656c1.712,1.712,2.656,3.989,2.656,6.411s-0.943,4.699-2.656,6.411l-30.055,30.055
			C392.288,123.991,388.009,119.711,383.535,115.642z M85.587,98.409c-1.713-1.712-2.656-3.989-2.656-6.411s0.943-4.698,2.656-6.411
			c1.712-1.713,3.989-2.656,6.411-2.656s4.698,0.943,6.411,2.656l29.95,29.95c-4.495,4.076-8.772,8.355-12.831,12.814L85.587,98.409
			z M24.067,265.067c-5,0-9.067-4.067-9.067-9.067c0-4.999,4.067-9.067,9.067-9.067h42.419c-0.142,3.009-0.219,6.032-0.219,9.067
			c0,3.04,0.079,6.061,0.221,9.067H24.067z M98.409,426.413c-1.712,1.713-3.989,2.656-6.411,2.656s-4.698-0.943-6.411-2.656
			c-1.713-1.712-2.656-3.989-2.656-6.411c0-2.421,0.943-4.698,2.656-6.411l30.055-30.055c4.069,4.474,8.348,8.754,12.823,12.823
			L98.409,426.413z M265.067,487.933c0,4.999-4.067,9.067-9.067,9.067s-9.067-4.067-9.067-9.067v-42.422
			c3.005,0.142,6.027,0.221,9.067,0.221c3.04,0,6.061-0.079,9.067-0.221V487.933z M426.413,413.59
			c3.535,3.535,3.535,9.287-0.001,12.822c-1.712,1.713-3.989,2.656-6.411,2.656s-4.698-0.943-6.411-2.656l-30.055-30.055
			c4.474-4.069,8.754-8.349,12.823-12.823L426.413,413.59z M487.933,265.067h-42.422c0.142-3.005,0.221-6.027,0.221-9.067
			c0-3.04-0.079-6.061-0.221-9.067h42.422c5,0,9.067,4.067,9.067,9.067S492.933,265.067,487.933,265.067z"/>
	</g>
</g>
<g>
	<g>
		<path d="M411.668,238.915c-0.015-0.225-0.041-0.446-0.076-0.665c-3.362-29.659-15.032-56.833-32.634-79.125
			c-0.315-0.534-0.693-1.04-1.151-1.499c-0.066-0.066-0.138-0.123-0.206-0.186c-6.863-8.451-14.587-16.175-23.038-23.038
			c-0.063-0.067-0.119-0.139-0.185-0.204c-0.458-0.458-0.964-0.836-1.497-1.15c-22.296-17.605-49.476-29.277-79.14-32.637
			c-0.212-0.033-0.427-0.059-0.644-0.074c-5.616-0.612-11.318-0.937-17.094-0.937c-5.774,0-11.473,0.324-17.086,0.936
			c-0.225,0.015-0.446,0.041-0.665,0.076c-29.659,3.362-56.834,15.033-79.126,32.635c-0.537,0.313-1.043,0.691-1.501,1.149
			c-0.066,0.066-0.123,0.138-0.186,0.206c-8.451,6.863-16.175,14.587-23.038,23.038c-0.067,0.063-0.139,0.119-0.204,0.185
			c-0.458,0.458-0.835,0.964-1.15,1.496c-17.61,22.302-29.284,49.492-32.64,79.166c-0.031,0.199-0.054,0.4-0.069,0.604
			C99.724,244.512,99.4,250.218,99.4,256c0,5.784,0.325,11.493,0.939,17.117c0.014,0.197,0.038,0.391,0.067,0.583
			c3.354,29.676,15.026,56.868,32.636,79.172c0.316,0.536,0.695,1.044,1.155,1.504c0.068,0.068,0.141,0.126,0.211,0.19
			c6.86,8.446,14.579,16.166,23.026,23.026c0.065,0.07,0.124,0.144,0.192,0.213c0.46,0.46,0.97,0.84,1.506,1.156
			c22.3,17.606,49.487,29.277,79.157,32.633c0.199,0.031,0.4,0.055,0.604,0.069c5.621,0.614,11.327,0.939,17.109,0.939
			c5.784,0,11.493-0.325,17.117-0.939c0.197-0.014,0.391-0.038,0.583-0.067c29.677-3.354,56.868-15.026,79.172-32.636
			c0.535-0.316,1.044-0.695,1.504-1.154c0.068-0.068,0.126-0.141,0.191-0.211c8.446-6.86,16.166-14.579,23.026-23.026
			c0.07-0.065,0.144-0.124,0.213-0.192c0.461-0.461,0.84-0.97,1.156-1.507c17.601-22.294,29.27-49.471,32.629-79.131
			c0.033-0.212,0.059-0.427,0.074-0.644c0.612-5.616,0.937-11.318,0.937-17.094C412.604,250.227,412.28,244.528,411.668,238.915z
			 M371.651,174.385c11.925,16.848,20.26,36.405,23.895,57.549h-81.444L371.651,174.385z M362.282,162.541l-59.96,59.96
			c-3.57-4.922-7.901-9.253-12.823-12.823l59.961-59.96C354.001,153.716,358.284,158,362.282,162.541z M280.067,116.453
			c21.144,3.636,40.701,11.971,57.549,23.896l-57.549,57.549V116.453z M246.933,114.697c2.999-0.19,6.02-0.299,9.067-0.299
			c3.046,0,6.068,0.108,9.067,0.299v84.829c-2.955-0.473-5.981-0.726-9.067-0.726s-6.112,0.254-9.067,0.726V114.697z
			 M231.933,116.453v81.444l-57.549-57.549C191.233,128.424,210.789,120.089,231.933,116.453z M162.541,149.718l59.96,59.96
			c-4.922,3.569-9.253,7.901-12.823,12.823l-59.96-59.961C153.716,157.999,157.999,153.716,162.541,149.718z M140.349,174.384
			l57.548,57.549h-81.444C120.089,210.789,128.424,191.232,140.349,174.384z M114.398,256c0-3.046,0.108-6.068,0.299-9.067h84.829
			c-0.473,2.955-0.726,5.981-0.726,9.067s0.253,6.112,0.726,9.067h-84.829C114.506,262.068,114.398,259.046,114.398,256z
			 M140.349,337.616c-11.925-16.848-20.26-36.405-23.896-57.549h81.444L140.349,337.616z M149.718,349.46l59.96-59.961
			c3.57,4.922,7.9,9.253,12.823,12.823l-59.96,59.96C158,358.284,153.716,354.001,149.718,349.46z M231.933,395.547
			c-21.144-3.636-40.701-11.971-57.549-23.895l57.549-57.549V395.547z M265.067,397.303c-2.999,0.19-6.021,0.299-9.067,0.299
			s-6.068-0.108-9.067-0.299v-84.829c2.955,0.473,5.981,0.726,9.067,0.726s6.112-0.254,9.067-0.726V397.303z M256,298.2
			c-23.269,0-42.2-18.931-42.2-42.2c0-23.269,18.931-42.2,42.2-42.2c23.269,0,42.2,18.931,42.2,42.2S279.269,298.2,256,298.2z
			 M280.067,395.547v-81.444l57.549,57.548C320.768,383.576,301.211,391.911,280.067,395.547z M349.459,362.282l-59.961-59.96
			c4.922-3.569,9.253-7.901,12.823-12.823l59.96,59.96C358.284,354,354.001,358.284,349.459,362.282z M371.651,337.616
			l-57.549-57.549h81.444C391.911,301.211,383.576,320.767,371.651,337.616z M397.303,265.067h-84.829
			c0.473-2.955,0.726-5.981,0.726-9.067c0-3.086-0.253-6.112-0.726-9.067h84.829c0.19,2.999,0.299,6.021,0.299,9.067
			C397.602,259.046,397.494,262.068,397.303,265.067z"/>
	</g>
</g>
<g>
</g>
<g>
</g>
<g>
</g>
<g>
</g>
<g>
</g>
<g>
</g>
<g>
</g>
<g>
</g>
<g>
</g>
<g>
</g>
<g>
</g>
<g>
</g>
<g>
</g>
<g>
</g>
<g>
</g>
</svg>
